<?xml version="1.0" encoding="UTF-8"?>
<!-- Generated by Pixelmator Pro 3.3.1 -->
<svg width="512" height="512" viewBox="0 0 512 512" xmlns="http://www.w3.org/2000/svg" xmlns:xlink="http://www.w3.org/1999/xlink">
    <path id="Shape" fill="#95a53b" fill-rule="evenodd" stroke="#95a53b" stroke-width="3" d="M 188 512 L 1 324 L 260 65 C 260 65 281.716644 88.2005 314 85 C 346.283356 81.7995 359 64 359 64 L 448 153 C 448 153 431.912842 173.239655 428 200 C 424.087158 226.760345 449 251 449 251 L 414 286 L 188 512 Z M 342.5 200.5 C 359.896942 200.5 374 186.508881 374 169.25 C 374 151.991119 359.896942 138 342.5 138 C 325.103058 138 311 151.991119 311 169.25 C 311 186.508881 325.103058 200.5 342.5 200.5 Z"/>
    <path id="Inner3" fill="#181818" fill-rule="evenodd" stroke="#181818" stroke-width="3" d="M 92.511147 344.488831 C 96.806915 348.784607 103.771729 348.784607 108.067497 344.488831 L 249.488846 203.067505 C 253.784622 198.771729 253.784622 191.806915 249.488846 187.511139 C 245.193085 183.215393 238.228271 183.215393 233.93251 187.511139 L 92.511147 328.932495 C 88.215378 333.228271 88.215378 340.193085 92.511147 344.488831 Z"/>
    <path id="Inner2" fill="#181818" fill-rule="evenodd" stroke="#181818" stroke-width="3" d="M 129.511154 382.488831 C 133.806915 386.784607 140.771729 386.784607 145.067505 382.488831 L 286.488831 241.067505 C 290.784607 236.771729 290.784607 229.806915 286.488831 225.511139 C 282.193085 221.215393 275.228271 221.215393 270.932495 225.511139 L 129.511154 366.932495 C 125.215378 371.228271 125.215378 378.193085 129.511154 382.488831 Z"/>
    <path id="Inner1" fill="#181818" fill-rule="evenodd" stroke="#181818" stroke-width="3" d="M 166.458755 420.838104 C 170.765366 425.122986 177.487839 425.348938 181.473801 421.342773 L 275.953827 326.383667 C 279.939789 322.377472 279.67984 315.65625 275.37323 311.371338 C 271.066589 307.086456 264.344147 306.860535 260.358185 310.866699 L 165.878159 405.825806 C 161.892197 409.83197 162.15213 416.553223 166.458755 420.838104 Z"/>
    <path id="Cutething" fill="#ffd440" fill-rule="evenodd" stroke="#ffd440" stroke-width="3" d="M 343 169 C 347.418274 173.418274 354.511658 173.488342 358.843475 169.156525 L 507.156525 20.843475 C 511.488342 16.511658 511.418274 9.418274 507 5 C 502.581726 0.581726 495.488342 0.511658 491.156525 4.843475 L 342.843475 153.156525 C 338.511658 157.488342 338.581726 164.581726 343 169 Z"/>
</svg>
